<?xml version="1.0" encoding="UTF-8"?>
<svg width="165px" height="31px" viewBox="0 0 165 31" version="1.1" xmlns="http://www.w3.org/2000/svg" xmlns:xlink="http://www.w3.org/1999/xlink">
    <!-- Generator: Sketch 51.3 (57544) - http://www.bohemiancoding.com/sketch -->
    <title>Group 4</title>
    <desc>Created with Sketch.</desc>
    <defs></defs>
    <g id="Page-1" stroke="none" stroke-width="1" fill="none" fill-rule="evenodd">
        <g id="Group-4">
            <g id="Group">
                <path d="M15.4094148,0.958764538 L35.1396854,0.958764538 L35.1396854,30.9386422 L15.4094148,30.9386422 C7.13070017,30.9386422 0.419475947,24.227418 0.419475947,15.9487034 C0.419475947,7.66998876 7.13070017,0.958764538 15.4094148,0.958764538 Z" id="Rectangle" fill="#EAECEE" fill-rule="nonzero"></path>
                <path d="M17.6192241,18.1527584 L21.2382717,18.1527584 L21.2382717,14.5337108 L17.6192241,14.5337108 L17.6192241,18.1527584 Z M17.6192241,19.9622822 L17.6192241,22.0407893 C17.6192241,23.0841236 17.2422437,23.9786878 16.4882717,24.7245088 C15.7342997,25.4703297 14.8275091,25.8432346 13.7678727,25.8432346 C12.7082364,25.8432346 11.8034835,25.468292 11.053587,24.7183955 C10.3036905,23.968499 9.9287479,23.0596707 9.9287479,21.9918833 C9.9287479,20.948549 10.3036905,20.0478716 11.053587,19.2898241 C11.8034835,18.5317765 12.69601,18.1527584 13.7311932,18.1527584 L15.8097003,18.1527584 L15.8097003,14.5337108 L13.7311932,14.5337108 C12.69601,14.5337108 11.8034835,14.1546927 11.053587,13.3966452 C10.3036905,12.6385976 9.9287479,11.7338448 9.9287479,10.6823595 C9.9287479,9.62272311 10.3036905,8.71797026 11.053587,7.96807376 C11.8034835,7.21817726 12.7082364,6.84323463 13.7678727,6.84323463 C14.8275091,6.84323463 15.7342997,7.21613952 16.4882717,7.9619605 C17.2422437,8.70778147 17.6192241,9.60234567 17.6192241,10.6456799 L17.6192241,12.724187 L21.2382717,12.724187 L21.2382717,10.6456799 C21.2382717,9.60234567 21.6152521,8.70778147 22.3692241,7.9619605 C23.1231961,7.21613952 24.0299867,6.84323463 25.0896231,6.84323463 C26.1574105,6.84323463 27.0642011,7.21817726 27.810022,7.96807376 C28.555843,8.71797026 28.9287479,9.62272311 28.9287479,10.6823595 C28.9287479,11.7338448 28.555843,12.6385976 27.810022,13.3966452 C27.0642011,14.1546927 26.1696369,14.5337108 25.1263026,14.5337108 L23.0477955,14.5337108 L23.0477955,18.1527584 L25.1263026,18.1527584 C26.1696369,18.1527584 27.0642011,18.5317765 27.810022,19.2898241 C28.555843,20.0478716 28.9287479,20.948549 28.9287479,21.9918833 C28.9287479,23.0596707 28.555843,23.968499 27.810022,24.7183955 C27.0642011,25.468292 26.1574105,25.8432346 25.0896231,25.8432346 C24.0299867,25.8432346 23.1231961,25.4703297 22.3692241,24.7245088 C21.6152521,23.9786878 21.2382717,23.0841236 21.2382717,22.0407893 L21.2382717,19.9622822 L17.6192241,19.9622822 Z M15.8097003,12.724187 L15.8097003,10.6823595 C15.8097003,10.1199371 15.6100026,9.64107016 15.2106012,9.24574428 C14.8111998,8.85041841 14.3302951,8.65275844 13.7678727,8.65275844 C13.2136014,8.65275844 12.7367722,8.85041841 12.3373708,9.24574428 C11.9379694,9.64107016 11.7382717,10.1199371 11.7382717,10.6823595 C11.7382717,11.2447818 11.9379694,11.7256865 12.3373708,12.1250879 C12.7367722,12.5244893 13.2176769,12.724187 13.7800993,12.724187 L15.8097003,12.724187 Z M15.8097003,19.9622822 L13.7800993,19.9622822 C13.2176769,19.9622822 12.7367722,20.16198 12.3373708,20.5613813 C11.9379694,20.9607827 11.7382717,21.437612 11.7382717,21.9918833 C11.7382717,22.5543057 11.9379694,23.0352103 12.3373708,23.4346117 C12.7367722,23.8340131 13.2176769,24.0337108 13.7800993,24.0337108 C14.3343706,24.0337108 14.8111998,23.8340131 15.2106012,23.4346117 C15.6100026,23.0352103 15.8097003,22.5583811 15.8097003,22.0041098 L15.8097003,19.9622822 Z M23.0477955,12.724187 L25.0896231,12.724187 C25.6438944,12.724187 26.1207236,12.5244893 26.520125,12.1250879 C26.9195264,11.7256865 27.1192241,11.2447818 27.1192241,10.6823595 C27.1192241,10.1199371 26.9215641,9.64107016 26.5262383,9.24574428 C26.1309124,8.85041841 25.6520454,8.65275844 25.0896231,8.65275844 C24.5272007,8.65275844 24.046296,8.85041841 23.6468946,9.24574428 C23.2474932,9.64107016 23.0477955,10.1199371 23.0477955,10.6823595 L23.0477955,12.724187 Z M23.0477955,19.9622822 L23.0477955,22.0041098 C23.0477955,22.5583811 23.2474932,23.0352103 23.6468946,23.4346117 C24.046296,23.8340131 24.5272007,24.0337108 25.0896231,24.0337108 C25.6520454,24.0337108 26.1309124,23.8340131 26.5262383,23.4346117 C26.9215641,23.0352103 27.1192241,22.5543057 27.1192241,21.9918833 C27.1192241,21.437612 26.9195264,20.9607827 26.520125,20.5613813 C26.1207236,20.16198 25.6438944,19.9622822 25.0896231,19.9622822 L23.0477955,19.9622822 Z" id="⌘" fill="#E4008D"></path>
            </g>
            <g id="Group-3" transform="translate(36.000000, 0.000000)">
                <path d="M0.139685403,0.958764538 L113.477759,0.958764538 C121.756473,0.958764538 128.467698,7.66998876 128.467698,15.9487034 C128.467698,24.227418 121.756473,30.9386422 113.477759,30.9386422 L0.139685403,30.9386422 L0.139685403,0.958764538 Z" id="Combined-Shape" fill="#EAECEE" fill-rule="nonzero"></path>
                <g id="Group-2" transform="translate(6.000000, 7.000000)" fill="#4C575D">
                    <path d="M27.8196854,17.8647034 C27.1156819,17.8647034 26.4756883,17.6967051 25.8996854,17.3607034 C25.2756823,17.0087016 24.7636874,16.4887068 24.3636854,15.8007034 C23.8676829,14.9366991 23.6196854,13.9207092 23.6196854,12.7527034 L23.6196854,5.81670338 L20.5716854,5.81670338 L20.5716854,4.95270338 L23.6196854,4.95270338 L23.6196854,0.0327033809 L24.5796854,0.0327033809 L24.5796854,4.95270338 L28.9716854,4.95270338 L28.9716854,5.81670338 L24.5796854,5.81670338 L24.5796854,12.7527034 C24.5796854,13.7767085 24.7956832,14.6566997 25.2276854,15.3927034 C25.5316869,15.9367061 25.923683,16.3527019 26.4036854,16.6407034 C26.8356875,16.8807046 27.3076828,17.0007034 27.8196854,17.0007034 C28.3316879,17.0007034 28.8036832,16.8807046 29.2356854,16.6407034 C29.7156878,16.3527019 30.1156838,15.9367061 30.4356854,15.3927034 C30.7236868,14.8967009 30.9156849,14.3367065 31.0116854,13.7127034 L31.9236854,13.9527034 C31.8116848,14.6247067 31.595687,15.2407006 31.2756854,15.8007034 C30.8756834,16.4887068 30.3636885,17.0087016 29.7396854,17.3607034 C29.1796826,17.6967051 28.539689,17.8647034 27.8196854,17.8647034 Z M32.9316854,17.6727034 L32.9316854,0.0327033809 L33.8916854,0.0327033809 L33.8916854,7.68870338 C33.9716858,7.49670242 34.0676848,7.31270426 34.1796854,7.13670338 C34.6436877,6.33669938 35.2356818,5.72870546 35.9556854,5.31270338 C36.5796885,4.94470154 37.2836814,4.76070338 38.0676854,4.76070338 C38.8356892,4.76070338 39.5396822,4.94470154 40.1796854,5.31270338 C40.899689,5.72870546 41.4836831,6.33669938 41.9316854,7.13670338 C42.5556885,8.19270866 42.8676854,9.46469594 42.8676854,10.9527034 L42.8676854,17.6727034 L41.9076854,17.6727034 L41.9076854,10.9527034 C41.9076854,9.64069682 41.6356881,8.52870794 41.0916854,7.61670338 C40.7076834,6.94470002 40.2196883,6.43270514 39.6276854,6.08070338 C39.0996827,5.77670186 38.5236885,5.62470338 37.8996854,5.62470338 C37.2756822,5.62470338 36.699688,5.77670186 36.1716854,6.08070338 C35.5796824,6.43270514 35.0916873,6.94470002 34.7076854,7.61670338 C34.1636826,8.52870794 33.8916854,9.64069682 33.8916854,10.9527034 L33.8916854,17.6727034 L32.9316854,17.6727034 Z M50.7876853,17.8647034 C49.8116805,17.8647034 48.9396892,17.6407056 48.1716853,17.1927034 C47.3556813,16.7287011 46.7076877,16.0727076 46.2276853,15.2247034 C45.6356824,14.2006983 45.3396853,13.0167101 45.3396853,11.6727034 L45.3396853,10.9527034 C45.3396853,9.54469634 45.6436823,8.32070858 46.2516853,7.28070338 C46.7156877,6.44869922 47.3396814,5.81670554 48.1236853,5.38470338 C48.8276889,4.9687013 49.6196809,4.76070338 50.4996853,4.76070338 C51.3796897,4.76070338 52.1716818,4.9687013 52.8756853,5.38470338 C53.6596893,5.81670554 54.283683,6.44869922 54.7476853,7.28070338 C55.3556884,8.32070858 55.6596853,9.54469634 55.6596853,10.9527034 L55.6596853,11.7447034 L46.2996853,11.7447034 C46.3156854,12.9127092 46.5716829,13.936699 47.0676853,14.8167034 C47.4836874,15.536707 48.027682,16.0807015 48.6996853,16.4487034 C49.3236885,16.8167052 50.0196815,17.0007034 50.7876853,17.0007034 C51.5556892,17.0007034 52.2596821,16.8167052 52.8996853,16.4487034 C53.5716887,16.0647015 54.1076833,15.512707 54.5076853,14.7927034 C54.635686,14.6007024 54.7396849,14.3927045 54.8196853,14.1687034 L55.6836853,14.5527034 C55.5876849,14.7927046 55.475686,15.0087024 55.3476853,15.2007034 C54.8676829,16.0647077 54.2196894,16.7287011 53.4036853,17.1927034 C52.6356815,17.6407056 51.7636902,17.8647034 50.7876853,17.8647034 Z M46.2996853,10.8807034 L54.6996853,10.8807034 C54.6836853,9.64869722 54.4196879,8.58470786 53.9076853,7.68870338 C53.5076833,7.00069994 52.9956885,6.47270522 52.3716853,6.10470338 C51.8116825,5.78470178 51.1876888,5.62470338 50.4996853,5.62470338 C49.8116819,5.62470338 49.1876881,5.78470178 48.6276853,6.10470338 C48.0036822,6.47270522 47.4916873,7.00069994 47.0916853,7.68870338 C46.5796828,8.58470786 46.3156854,9.64869722 46.2996853,10.8807034 Z M59.5716853,17.6727034 L59.5716853,4.95270338 L60.5316853,4.95270338 L60.5316853,8.00070338 C60.6596859,7.64870162 60.8116844,7.3207049 60.9876853,7.01670338 C61.4356875,6.24869954 61.9956819,5.66470538 62.6676853,5.26470338 C63.2596883,4.9287017 63.8996819,4.76070338 64.5876853,4.76070338 C65.4516896,4.76070338 66.2196819,4.96070138 66.8916853,5.36070338 C67.4516881,5.68070498 67.8916837,6.11270066 68.2116853,6.65670338 C68.2916857,6.81670418 68.363685,6.96870266 68.4276853,7.11270338 L67.5396853,7.49670338 C67.475685,7.36870274 67.4116856,7.2327041 67.3476853,7.08870338 C67.0756839,6.65670122 66.7236875,6.31270466 66.2916853,6.05670338 C65.7956828,5.76870194 65.2276885,5.62470338 64.5876853,5.62470338 C63.9476821,5.62470338 63.3636879,5.77670186 62.8356853,6.08070338 C62.2276823,6.43270514 61.7236873,6.95269994 61.3236853,7.64070338 C60.7956827,8.55270794 60.5316853,9.64869698 60.5316853,10.9287034 L60.5316853,17.6727034 L59.5716853,17.6727034 Z M75.8876853,17.6727034 C75.1356815,17.6727034 74.4636883,17.5047051 73.8716853,17.1687034 C73.3436827,16.8487018 72.9276868,16.424706 72.6236853,15.8967034 C72.2876836,15.3367006 72.1196853,14.6887071 72.1196853,13.9527034 L72.1196853,0.896703381 L68.3996853,0.896703381 L68.3996853,0.0327033809 L73.0796853,0.0327033809 L73.0796853,13.9527034 C73.0796853,14.5127062 73.207684,15.0247011 73.4636853,15.4887034 C73.7036865,15.8887054 74.0236833,16.2007023 74.4236853,16.4247034 C74.8556875,16.6807047 75.3436826,16.8087034 75.8876853,16.8087034 L77.0156853,16.8087034 L77.0156853,17.6727034 L75.8876853,17.6727034 Z M82.0996853,2.07270338 C81.8596841,2.07270338 81.6596861,1.99270418 81.4996853,1.83270338 C81.3396845,1.67270258 81.2596853,1.47270458 81.2596853,1.23270338 C81.2596853,0.992702181 81.3396845,0.792704181 81.4996853,0.632703381 C81.6596861,0.472702581 81.8596841,0.392703381 82.0996853,0.392703381 C82.3396865,0.392703381 82.5396845,0.472702581 82.6996853,0.632703381 C82.8596861,0.792704181 82.9396853,0.992702181 82.9396853,1.23270338 C82.9396853,1.47270458 82.8596861,1.67270258 82.6996853,1.83270338 C82.5396845,1.99270418 82.3396865,2.07270338 82.0996853,2.07270338 Z M85.3876853,17.6727034 C84.6356815,17.6727034 83.9636883,17.5047051 83.3716853,17.1687034 C82.8436827,16.8487018 82.4276868,16.424706 82.1236853,15.8967034 C81.7876836,15.3367006 81.6196853,14.6887071 81.6196853,13.9527034 L81.6196853,5.81670338 L77.8996853,5.81670338 L77.8996853,4.95270338 L82.5796853,4.95270338 L82.5796853,13.9527034 C82.5796853,14.5127062 82.707684,15.0247011 82.9636853,15.4887034 C83.2036865,15.8887054 83.5236833,16.2007023 83.9236853,16.4247034 C84.3556875,16.6807047 84.8436826,16.8087034 85.3876853,16.8087034 L86.5156853,16.8087034 L86.5156853,17.6727034 L85.3876853,17.6727034 Z M89.7316853,17.6727034 L89.7316853,4.95270338 L90.6916853,4.95270338 L90.6916853,7.68870338 C90.7716857,7.49670242 90.8676847,7.31270426 90.9796853,7.13670338 C91.4436876,6.33669938 92.0356817,5.72870546 92.7556853,5.31270338 C93.3796884,4.94470154 94.0836814,4.76070338 94.8676853,4.76070338 C95.6356891,4.76070338 96.3396821,4.94470154 96.9796853,5.31270338 C97.6996889,5.72870546 98.283683,6.33669938 98.7316853,7.13670338 C99.3556884,8.19270866 99.6676853,9.46469594 99.6676853,10.9527034 L99.6676853,17.6727034 L98.7076853,17.6727034 L98.7076853,10.9527034 C98.7076853,9.64069682 98.435688,8.52870794 97.8916853,7.61670338 C97.5076834,6.94470002 97.0196882,6.43270514 96.4276853,6.08070338 C95.8996826,5.77670186 95.3236884,5.62470338 94.6996853,5.62470338 C94.0756822,5.62470338 93.4996879,5.77670186 92.9716853,6.08070338 C92.3796823,6.43270514 91.8916872,6.94470002 91.5076853,7.61670338 C90.9636826,8.52870794 90.6916853,9.64069682 90.6916853,10.9527034 L90.6916853,17.6727034 L89.7316853,17.6727034 Z M107.587685,17.8647034 C106.61168,17.8647034 105.739689,17.6407056 104.971685,17.1927034 C104.155681,16.7287011 103.507688,16.0727076 103.027685,15.2247034 C102.435682,14.2006983 102.139685,13.0167101 102.139685,11.6727034 L102.139685,10.9527034 C102.139685,9.54469634 102.443682,8.32070858 103.051685,7.28070338 C103.515688,6.44869922 104.139681,5.81670554 104.923685,5.38470338 C105.627689,4.9687013 106.419681,4.76070338 107.299685,4.76070338 C108.17969,4.76070338 108.971682,4.9687013 109.675685,5.38470338 C110.459689,5.81670554 111.083683,6.44869922 111.547685,7.28070338 C112.155688,8.32070858 112.459685,9.54469634 112.459685,10.9527034 L112.459685,11.7447034 L103.099685,11.7447034 C103.115685,12.9127092 103.371683,13.936699 103.867685,14.8167034 C104.283687,15.536707 104.827682,16.0807015 105.499685,16.4487034 C106.123688,16.8167052 106.819681,17.0007034 107.587685,17.0007034 C108.355689,17.0007034 109.059682,16.8167052 109.699685,16.4487034 C110.371689,16.0647015 110.907683,15.512707 111.307685,14.7927034 C111.435686,14.6007024 111.539685,14.3927045 111.619685,14.1687034 L112.483685,14.5527034 C112.387685,14.7927046 112.275686,15.0087024 112.147685,15.2007034 C111.667683,16.0647077 111.019689,16.7287011 110.203685,17.1927034 C109.435681,17.6407056 108.56369,17.8647034 107.587685,17.8647034 Z M103.099685,10.8807034 L111.499685,10.8807034 C111.483685,9.64869722 111.219688,8.58470786 110.707685,7.68870338 C110.307683,7.00069994 109.795688,6.47270522 109.171685,6.10470338 C108.611682,5.78470178 107.987689,5.62470338 107.299685,5.62470338 C106.611682,5.62470338 105.987688,5.78470178 105.427685,6.10470338 C104.803682,6.47270522 104.291687,7.00069994 103.891685,7.68870338 C103.379683,8.58470786 103.115685,9.64869722 103.099685,10.8807034 Z" id="aetherline"></path>
                    <path d="M4.4596854,17.8647034 C3.48368052,17.8647034 2.635689,17.6567055 1.9156854,17.2407034 C1.32368244,16.9047017 0.875686923,16.472706 0.571685403,15.9447034 C0.283683963,15.4327008 0.139685403,14.8807063 0.139685403,14.2887034 C0.139685403,13.7447007 0.267684123,13.2487056 0.523685403,12.8007034 C0.843687003,12.2407006 1.33968204,11.7687053 2.0116854,11.3847034 C3.03569052,10.7927004 4.29967788,10.4967034 5.8036854,10.4967034 L9.3076854,10.4967034 L9.3076854,9.51270338 C9.3076854,8.79269978 9.13968708,8.13670634 8.8036854,7.54470338 C8.46768372,6.98470058 8.01168828,6.53670506 7.4356854,6.20070338 C6.77968212,5.81670146 6.02768964,5.62470338 5.1796854,5.62470338 C4.299681,5.62470338 3.53168868,5.81670146 2.8756854,6.20070338 C2.29968252,6.53670506 1.851687,6.98470058 1.5316854,7.54470338 C1.38768468,7.78470458 1.26768588,8.05670186 1.1716854,8.36070338 L0.283685403,8.07270338 C0.363685803,7.76870186 0.491684523,7.45670498 0.667685403,7.13670338 C1.08368748,6.41669978 1.64368188,5.85670538 2.3476854,5.45670338 C3.16368948,4.99270106 4.10768004,4.76070338 5.1796854,4.76070338 C6.2196906,4.76070338 7.15568124,4.99270106 7.9876854,5.45670338 C8.707689,5.88870554 9.25968348,6.44869994 9.6436854,7.13670338 C10.0596875,7.8407069 10.2676854,8.63269898 10.2676854,9.51270338 C10.2532746,9.9741873 10.247437,10.3098004 10.2501726,10.5195427 C10.2676854,11.8622888 10.2107782,12.8301204 10.0720837,13.4034653 C9.93318055,13.9776724 9.47636929,14.9048719 9.3076854,15.2535552 C8.90541853,15.9447034 8.1156894,16.6807011 7.3156854,17.1447034 C6.46768116,17.6247058 5.51569068,17.8647034 4.4596854,17.8647034 Z M4.6276854,17.0007034 C5.53968996,17.0007034 6.3556818,16.7927055 7.0756854,16.3767034 C7.74768876,15.9927015 8.2836834,15.4567068 8.6836854,14.7687034 C9.09968748,14.0326997 9.3076854,13.200708 9.3076854,12.2727034 L9.3076854,11.3607034 L5.8036854,11.3607034 C4.49167884,11.3607034 3.40368972,11.6087009 2.5396854,12.1047034 C2.01168276,12.4087049 1.6276866,12.7687013 1.3876854,13.1847034 C1.19568444,13.5207051 1.0996854,13.8887014 1.0996854,14.2887034 C1.0996854,14.7207055 1.20368436,15.1127016 1.4116854,15.4647034 C1.6516866,15.8807055 1.99568316,16.2167021 2.4436854,16.4727034 C3.05168844,16.8247051 3.77968116,17.0007034 4.6276854,17.0007034 Z M14.748,17.8647034 C13.7719951,17.8647034 12.9000038,17.6407056 12.132,17.1927034 C11.3159959,16.7287011 10.6680024,16.0727076 10.188,15.2247034 C9.59599704,14.2006983 9.3,13.0167101 9.3,11.6727034 L9.3,10.9527034 C9.3,9.54469634 9.60399696,8.32070858 10.212,7.28070338 C10.6760023,6.44869922 11.2999961,5.81670554 12.084,5.38470338 C12.7880035,4.9687013 13.5799956,4.76070338 14.46,4.76070338 C15.3400044,4.76070338 16.1319965,4.9687013 16.836,5.38470338 C17.6200039,5.81670554 18.2439977,6.44869922 18.708,7.28070338 C19.316003,8.32070858 19.62,9.54469634 19.62,10.9527034 L19.62,11.7447034 L10.26,11.7447034 C10.2760001,12.9127092 10.5319975,13.936699 11.028,14.8167034 C11.4440021,15.536707 11.9879966,16.0807015 12.66,16.4487034 C13.2840031,16.8167052 13.9799962,17.0007034 14.748,17.0007034 C15.5160038,17.0007034 16.2199968,16.8167052 16.86,16.4487034 C17.5320034,16.0647015 18.067998,15.512707 18.468,14.7927034 C18.5960006,14.6007024 18.6999996,14.3927045 18.78,14.1687034 L19.644,14.5527034 C19.5479995,14.7927046 19.4360006,15.0087024 19.308,15.2007034 C18.8279976,16.0647077 18.1800041,16.7287011 17.364,17.1927034 C16.5959962,17.6407056 15.7240049,17.8647034 14.748,17.8647034 Z M10.26,10.8807034 L18.66,10.8807034 C18.6439999,9.64869722 18.3800026,8.58470786 17.868,7.68870338 C17.467998,7.00069994 16.9560031,6.47270522 16.332,6.10470338 C15.7719972,5.78470178 15.1480034,5.62470338 14.46,5.62470338 C13.7719966,5.62470338 13.1480028,5.78470178 12.588,6.10470338 C11.9639969,6.47270522 11.452002,7.00069994 11.052,7.68870338 C10.5399974,8.58470786 10.2760001,9.64869722 10.26,10.8807034 Z" id="Combined-Shape" fill-rule="nonzero"></path>
                </g>
            </g>
        </g>
    </g>
</svg>